<?xml version="1.0" encoding="UTF-8"?>
<svg width="500px" height="400px" viewBox="0 0 500 400" version="1.1" xmlns="http://www.w3.org/2000/svg" xmlns:xlink="http://www.w3.org/1999/xlink">
    <title>Weather Illustration</title>
    <defs>
        <linearGradient x1="0%" y1="0%" x2="100%" y2="100%" id="skyGradient">
            <stop stop-color="#64B5F6" offset="0%"></stop>
            <stop stop-color="#1976D2" offset="100%"></stop>
        </linearGradient>
        <linearGradient x1="0%" y1="0%" x2="100%" y2="100%" id="sunGradient">
            <stop stop-color="#FFC107" offset="0%"></stop>
            <stop stop-color="#FF9800" offset="100%"></stop>
        </linearGradient>
        <linearGradient x1="0%" y1="0%" x2="100%" y2="100%" id="cloudGradient">
            <stop stop-color="#FFFFFF" offset="0%"></stop>
            <stop stop-color="#E0E0E0" offset="100%"></stop>
        </linearGradient>
        <linearGradient x1="0%" y1="0%" x2="100%" y2="100%" id="rainGradient">
            <stop stop-color="#82B1FF" offset="0%"></stop>
            <stop stop-color="#2979FF" offset="100%"></stop>
        </linearGradient>
    </defs>
    <g id="Weather-Illustration" stroke="none" stroke-width="1" fill="none" fill-rule="evenodd">
        <!-- Sky background -->
        <rect id="Sky" fill="url(#skyGradient)" x="0" y="0" width="500" height="400" rx="8"></rect>
        
        <!-- Sun -->
        <circle id="Sun" fill="url(#sunGradient)" cx="120" cy="100" r="50"></circle>
        
        <!-- Sun rays -->
        <line id="Ray1" stroke="#FFC107" stroke-width="6" x1="120" y1="30" x2="120" y2="10" stroke-linecap="round"></line>
        <line id="Ray2" stroke="#FFC107" stroke-width="6" x1="120" y1="170" x2="120" y2="190" stroke-linecap="round"></line>
        <line id="Ray3" stroke="#FFC107" stroke-width="6" x1="50" y1="100" x2="30" y2="100" stroke-linecap="round"></line>
        <line id="Ray4" stroke="#FFC107" stroke-width="6" x1="190" y1="100" x2="210" y2="100" stroke-linecap="round"></line>
        <line id="Ray5" stroke="#FFC107" stroke-width="6" x1="70" y1="50" x2="55" y2="35" stroke-linecap="round"></line>
        <line id="Ray6" stroke="#FFC107" stroke-width="6" x1="170" y1="150" x2="185" y2="165" stroke-linecap="round"></line>
        <line id="Ray7" stroke="#FFC107" stroke-width="6" x1="70" y1="150" x2="55" y2="165" stroke-linecap="round"></line>
        <line id="Ray8" stroke="#FFC107" stroke-width="6" x1="170" y1="50" x2="185" y2="35" stroke-linecap="round"></line>
        
        <!-- Cloud 1 -->
        <g id="Cloud1" transform="translate(320, 80)">
            <circle fill="url(#cloudGradient)" cx="50" cy="50" r="40"></circle>
            <circle fill="url(#cloudGradient)" cx="90" cy="50" r="35"></circle>
            <circle fill="url(#cloudGradient)" cx="25" cy="50" r="25"></circle>
            <circle fill="url(#cloudGradient)" cx="70" cy="30" r="30"></circle>
            <rect fill="url(#cloudGradient)" x="25" y="40" width="80" height="45" rx="20"></rect>
        </g>
        
        <!-- Cloud 2 -->
        <g id="Cloud2" transform="translate(180, 150)">
            <circle fill="url(#cloudGradient)" cx="40" cy="40" r="30"></circle>
            <circle fill="url(#cloudGradient)" cx="75" cy="40" r="25"></circle>
            <circle fill="url(#cloudGradient)" cx="20" cy="40" r="20"></circle>
            <circle fill="url(#cloudGradient)" cx="60" cy="25" r="22"></circle>
            <rect fill="url(#cloudGradient)" x="20" y="30" width="60" height="35" rx="15"></rect>
        </g>
        
        <!-- Cloud 3 with rain -->
        <g id="RainCloud" transform="translate(50, 200)">
            <circle fill="url(#cloudGradient)" cx="40" cy="40" r="30"></circle>
            <circle fill="url(#cloudGradient)" cx="75" cy="40" r="25"></circle>
            <circle fill="url(#cloudGradient)" cx="20" cy="40" r="20"></circle>
            <circle fill="url(#cloudGradient)" cx="60" cy="25" r="22"></circle>
            <rect fill="url(#cloudGradient)" x="20" y="30" width="60" height="35" rx="15"></rect>
            
            <!-- Rain drops -->
            <line id="Rain1" stroke="url(#rainGradient)" stroke-width="3" x1="30" y1="70" x2="25" y2="90" stroke-linecap="round"></line>
            <line id="Rain2" stroke="url(#rainGradient)" stroke-width="3" x1="50" y1="70" x2="45" y2="95" stroke-linecap="round"></line>
            <line id="Rain3" stroke="url(#rainGradient)" stroke-width="3" x1="70" y1="70" x2="65" y2="90" stroke-linecap="round"></line>
            <line id="Rain4" stroke="url(#rainGradient)" stroke-width="3" x1="90" y1="70" x2="85" y2="85" stroke-linecap="round"></line>
        </g>
        
        <!-- Weather Icons -->
        <g id="WeatherIcons" transform="translate(300, 230)">
            <!-- Thermometer -->
            <g id="Thermometer" transform="translate(0, 0)">
                <rect fill="#FFFFFF" x="10" y="5" width="20" height="50" rx="10"></rect>
                <rect fill="#F44336" x="15" y="30" width="10" height="20" rx="5"></rect>
                <circle fill="#F44336" cx="20" cy="50" r="10"></circle>
                <line stroke="#FFFFFF" stroke-width="2" x1="20" y1="15" x2="20" y2="35" stroke-linecap="round"></line>
                <line stroke="#FFFFFF" stroke-width="2" x1="10" y1="20" x2="30" y2="20" stroke-linecap="round"></line>
                <line stroke="#FFFFFF" stroke-width="2" x1="10" y1="30" x2="30" y2="30" stroke-linecap="round"></line>
            </g>
            
            <!-- Wind -->
            <g id="Wind" transform="translate(50, 10)">
                <path d="M5,15 C5,10 10,5 15,5 C20,5 25,10 25,15" stroke="#FFFFFF" stroke-width="3" fill="none" stroke-linecap="round"></path>
                <path d="M10,25 C10,20 15,15 20,15 C25,15 30,20 30,25" stroke="#FFFFFF" stroke-width="3" fill="none" stroke-linecap="round"></path>
                <path d="M5,35 C5,30 10,25 15,25 C20,25 25,30 25,35" stroke="#FFFFFF" stroke-width="3" fill="none" stroke-linecap="round"></path>
            </g>
            
            <!-- Umbrella -->
            <g id="Umbrella" transform="translate(100, 0)">
                <path d="M20,10 L20,50" stroke="#FFFFFF" stroke-width="3" stroke-linecap="round"></path>
                <path d="M20,10 C0,30 0,30 20,30 C40,30 40,30 20,10" fill="#F44336"></path>
                <path d="M20,50 C25,45 30,45 30,50" stroke="#FFFFFF" stroke-width="3" fill="none" stroke-linecap="round"></path>
            </g>
        </g>
        
        <!-- City silhouette -->
        <g id="City" transform="translate(0, 300)" fill="#0D47A1">
            <rect x="0" y="0" width="500" height="100"></rect>
            <rect x="20" y="-80" width="30" height="80"></rect>
            <rect x="20" y="-100" width="30" height="20" rx="10"></rect>
            <rect x="70" y="-120" width="40" height="120"></rect>
            <rect x="130" y="-90" width="35" height="90"></rect>
            <rect x="180" y="-150" width="50" height="150"></rect>
            <rect x="250" y="-100" width="45" height="100"></rect>
            <rect x="310" y="-180" width="60" height="180"></rect>
            <rect x="390" y="-120" width="40" height="120"></rect>
            <rect x="450" y="-70" width="30" height="70"></rect>
            
            <!-- Windows -->
            <rect fill="#FFECB3" x="25" y="-70" width="8" height="10"></rect>
            <rect fill="#FFECB3" x="38" y="-70" width="8" height="10"></rect>
            <rect fill="#FFECB3" x="25" y="-50" width="8" height="10"></rect>
            <rect fill="#FFECB3" x="38" y="-50" width="8" height="10"></rect>
            <rect fill="#FFECB3" x="25" y="-30" width="8" height="10"></rect>
            <rect fill="#FFECB3" x="38" y="-30" width="8" height="10"></rect>
            
            <rect fill="#FFECB3" x="80" y="-110" width="8" height="10"></rect>
            <rect fill="#FFECB3" x="95" y="-110" width="8" height="10"></rect>
            <rect fill="#FFECB3" x="80" y="-90" width="8" height="10"></rect>
            <rect fill="#FFECB3" x="95" y="-90" width="8" height="10"></rect>
            <rect fill="#FFECB3" x="80" y="-70" width="8" height="10"></rect>
            <rect fill="#FFECB3" x="95" y="-70" width="8" height="10"></rect>
            <rect fill="#FFECB3" x="80" y="-50" width="8" height="10"></rect>
            <rect fill="#FFECB3" x="95" y="-50" width="8" height="10"></rect>
            <rect fill="#FFECB3" x="80" y="-30" width="8" height="10"></rect>
            <rect fill="#FFECB3" x="95" y="-30" width="8" height="10"></rect>
            
            <rect fill="#FFECB3" x="140" y="-80" width="8" height="10"></rect>
            <rect fill="#FFECB3" x="140" y="-60" width="8" height="10"></rect>
            <rect fill="#FFECB3" x="140" y="-40" width="8" height="10"></rect>
            <rect fill="#FFECB3" x="140" y="-20" width="8" height="10"></rect>
            <rect fill="#FFECB3" x="155" y="-80" width="8" height="10"></rect>
            <rect fill="#FFECB3" x="155" y="-60" width="8" height="10"></rect>
            <rect fill="#FFECB3" x="155" y="-40" width="8" height="10"></rect>
            <rect fill="#FFECB3" x="155" y="-20" width="8" height="10"></rect>
            
            <rect fill="#FFECB3" x="190" y="-140" width="10" height="12"></rect>
            <rect fill="#FFECB3" x="210" y="-140" width="10" height="12"></rect>
            <rect fill="#FFECB3" x="190" y="-120" width="10" height="12"></rect>
            <rect fill="#FFECB3" x="210" y="-120" width="10" height="12"></rect>
            <rect fill="#FFECB3" x="190" y="-100" width="10" height="12"></rect>
            <rect fill="#FFECB3" x="210" y="-100" width="10" height="12"></rect>
            <rect fill="#FFECB3" x="190" y="-80" width="10" height="12"></rect>
            <rect fill="#FFECB3" x="210" y="-80" width="10" height="12"></rect>
            <rect fill="#FFECB3" x="190" y="-60" width="10" height="12"></rect>
            <rect fill="#FFECB3" x="210" y="-60" width="10" height="12"></rect>
            <rect fill="#FFECB3" x="190" y="-40" width="10" height="12"></rect>
            <rect fill="#FFECB3" x="210" y="-40" width="10" height="12"></rect>
            
            <rect fill="#FFECB3" x="260" y="-90" width="10" height="12"></rect>
            <rect fill="#FFECB3" x="280" y="-90" width="10" height="12"></rect>
            <rect fill="#FFECB3" x="260" y="-70" width="10" height="12"></rect>
            <rect fill="#FFECB3" x="280" y="-70" width="10" height="12"></rect>
            <rect fill="#FFECB3" x="260" y="-50" width="10" height="12"></rect>
            <rect fill="#FFECB3" x="280" y="-50" width="10" height="12"></rect>
            <rect fill="#FFECB3" x="260" y="-30" width="10" height="12"></rect>
            <rect fill="#FFECB3" x="280" y="-30" width="10" height="12"></rect>
            
            <rect fill="#FFECB3" x="325" y="-170" width="10" height="12"></rect>
            <rect fill="#FFECB3" x="345" y="-170" width="10" height="12"></rect>
            <rect fill="#FFECB3" x="325" y="-150" width="10" height="12"></rect>
            <rect fill="#FFECB3" x="345" y="-150" width="10" height="12"></rect>
            <rect fill="#FFECB3" x="325" y="-130" width="10" height="12"></rect>
            <rect fill="#FFECB3" x="345" y="-130" width="10" height="12"></rect>
            <rect fill="#FFECB3" x="325" y="-110" width="10" height="12"></rect>
            <rect fill="#FFECB3" x="345" y="-110" width="10" height="12"></rect>
            <rect fill="#FFECB3" x="325" y="-90" width="10" height="12"></rect>
            <rect fill="#FFECB3" x="345" y="-90" width="10" height="12"></rect>
            <rect fill="#FFECB3" x="325" y="-70" width="10" height="12"></rect>
            <rect fill="#FFECB3" x="345" y="-70" width="10" height="12"></rect>
            <rect fill="#FFECB3" x="325" y="-50" width="10" height="12"></rect>
            <rect fill="#FFECB3" x="345" y="-50" width="10" height="12"></rect>
            <rect fill="#FFECB3" x="325" y="-30" width="10" height="12"></rect>
            <rect fill="#FFECB3" x="345" y="-30" width="10" height="12"></rect>
            
            <rect fill="#FFECB3" x="400" y="-110" width="10" height="12"></rect>
            <rect fill="#FFECB3" x="420" y="-110" width="10" height="12"></rect>
            <rect fill="#FFECB3" x="400" y="-90" width="10" height="12"></rect>
            <rect fill="#FFECB3" x="420" y="-90" width="10" height="12"></rect>
            <rect fill="#FFECB3" x="400" y="-70" width="10" height="12"></rect>
            <rect fill="#FFECB3" x="420" y="-70" width="10" height="12"></rect>
            <rect fill="#FFECB3" x="400" y="-50" width="10" height="12"></rect>
            <rect fill="#FFECB3" x="420" y="-50" width="10" height="12"></rect>
            <rect fill="#FFECB3" x="400" y="-30" width="10" height="12"></rect>
            <rect fill="#FFECB3" x="420" y="-30" width="10" height="12"></rect>
            
            <rect fill="#FFECB3" x="460" y="-60" width="8" height="10"></rect>
            <rect fill="#FFECB3" x="460" y="-40" width="8" height="10"></rect>
            <rect fill="#FFECB3" x="460" y="-20" width="8" height="10"></rect>
        </g>
    </g>
</svg>