<svg xmlns="http://www.w3.org/2000/svg" width="64" height="64" viewBox="0 0 64 64" fill="none">
  <circle cx="32" cy="32" r="30" fill="url(#paint0_linear)"/>
  <path d="M32 16C23.164 16 16 23.164 16 32C16 40.837 23.164 48 32 48C40.837 48 48 40.837 48 32C48 23.164 40.837 16 32 16ZM32 44C25.373 44 20 38.627 20 32C20 25.373 25.373 20 32 20C38.627 20 44 25.373 44 32C44 38.627 38.627 44 32 44Z" fill="white"/>
  <path d="M32 24C28.686 24 26 26.686 26 30C26 33.314 28.686 36 32 36C35.314 36 38 33.314 38 30C38 26.686 35.314 24 32 24ZM32 32C30.895 32 30 31.105 30 30C30 28.895 30.895 28 32 28C33.105 28 34 28.895 34 30C34 31.105 33.105 32 32 32Z" fill="white"/>
  <path d="M38 8H26L32 16L38 8Z" fill="white"/>
  <path d="M38 56H26L32 48L38 56Z" fill="white"/>
  <path d="M8 26V38L16 32L8 26Z" fill="white"/>
  <path d="M56 26V38L48 32L56 26Z" fill="white"/>
  <defs>
    <linearGradient id="paint0_linear" x1="2" y1="2" x2="62" y2="62" gradientUnits="userSpaceOnUse">
      <stop stop-color="#1976D2"/>
      <stop offset="1" stop-color="#0D47A1"/>
    </linearGradient>
  </defs>
</svg>